<svg width="250" height="59" viewBox="0 0 250 59" fill="none" xmlns="http://www.w3.org/2000/svg">
<path d="M18.3769 53.3326C1.56597 38.3896 20.8703 23.1596 12.5064 7.70319M28.2499 56.8015C11.439 41.8585 33.9454 18.6234 25.5815 3.16693M35.7214 56.8015C18.9105 41.8585 47.0205 20.2244 38.6566 4.76796" stroke="#B78F62" stroke-width="2"/>
<path fill-rule="evenodd" clip-rule="evenodd" d="M11.5218 48.1861C16.2762 52.6706 22.7189 55.373 29.7698 55.2499C32.0024 55.2109 34.1643 54.891 36.2222 54.3243C37.4555 54.9646 38.6282 55.5985 39.7326 56.1961C36.6532 57.3897 33.3147 58.0703 29.8201 58.1313C21.2243 58.2814 13.4418 54.6521 8.05831 48.7746C9.19411 48.5212 10.3494 48.3212 11.5218 48.1861ZM1.5444 37.0364C0.906667 34.7358 0.546552 32.3178 0.502954 29.8201C0.22518 13.9064 12.9006 0.78071 28.8142 0.502936C44.7278 0.225163 57.8536 12.9005 58.1313 28.8142C58.2786 37.2514 54.7847 44.905 49.0976 50.2756C48.6628 49.419 48.1388 48.5864 47.532 47.7816C52.4063 42.9717 55.3789 36.2519 55.2499 28.8645C54.9999 14.5422 43.1868 3.13436 28.8645 3.38436C14.5422 3.63435 3.13438 15.4475 3.38437 29.7698C3.42468 32.0789 3.76557 34.3123 4.36909 36.4333C3.41014 36.6119 2.46797 36.8133 1.5444 37.0364Z" fill="#B78F62"/>
<path d="M70.0606 41.4745V37.4785H76.6486C77.8246 37.4785 78.7366 37.1185 79.3846 36.3985C80.0566 35.6785 80.3926 34.8265 80.3926 33.8425C80.3926 33.1705 80.2486 32.5585 79.9606 32.0065C79.6726 31.4545 79.2406 31.0225 78.6646 30.7105C78.1126 30.3745 77.4406 30.2065 76.6486 30.2065H70.0606V26.2465H76.1086C77.1166 26.2465 77.9206 25.9945 78.5206 25.4905C79.1446 24.9865 79.4566 24.2305 79.4566 23.2225C79.4566 22.1905 79.1446 21.4225 78.5206 20.9185C77.9206 20.4145 77.1166 20.1625 76.1086 20.1625H70.0606V16.1665H76.6846C78.3646 16.1665 79.7686 16.4785 80.8966 17.1025C82.0486 17.7025 82.9126 18.5065 83.4886 19.5145C84.0646 20.4985 84.3526 21.5785 84.3526 22.7545C84.3526 24.1945 83.9086 25.4425 83.0206 26.4985C82.1566 27.5305 80.8846 28.2985 79.2046 28.8025L79.4206 27.2185C81.2926 27.7465 82.7326 28.6225 83.7406 29.8465C84.7726 31.0465 85.2886 32.4985 85.2886 34.2025C85.2886 35.5465 84.9526 36.7705 84.2806 37.8745C83.6326 38.9545 82.6726 39.8305 81.4006 40.5025C80.1526 41.1505 78.6286 41.4745 76.8286 41.4745H70.0606ZM66.4606 41.4745V16.1665H71.3206V41.4745H66.4606ZM96.8396 41.8345C95.0876 41.8345 93.5036 41.4385 92.0876 40.6465C90.6956 39.8305 89.5796 38.7385 88.7396 37.3705C87.9236 35.9785 87.5156 34.4305 87.5156 32.7265C87.5156 31.0225 87.9236 29.4985 88.7396 28.1545C89.5556 26.7865 90.6716 25.7065 92.0876 24.9145C93.5036 24.0985 95.0756 23.6905 96.8036 23.6905C98.5796 23.6905 100.164 24.0985 101.556 24.9145C102.972 25.7065 104.088 26.7865 104.904 28.1545C105.72 29.4985 106.128 31.0225 106.128 32.7265C106.128 34.4305 105.72 35.9785 104.904 37.3705C104.088 38.7385 102.972 39.8305 101.556 40.6465C100.164 41.4385 98.5916 41.8345 96.8396 41.8345ZM96.8036 37.4425C97.6916 37.4425 98.4716 37.2505 99.1436 36.8665C99.8396 36.4585 100.368 35.9065 100.728 35.2105C101.112 34.4905 101.304 33.6745 101.304 32.7625C101.304 31.8505 101.112 31.0465 100.728 30.3505C100.344 29.6545 99.8156 29.1145 99.1436 28.7305C98.4716 28.3225 97.6916 28.1185 96.8036 28.1185C95.9396 28.1185 95.1716 28.3225 94.4996 28.7305C93.8276 29.1145 93.2996 29.6545 92.9156 30.3505C92.5316 31.0465 92.3396 31.8505 92.3396 32.7625C92.3396 33.6745 92.5316 34.4905 92.9156 35.2105C93.2996 35.9065 93.8276 36.4585 94.4996 36.8665C95.1716 37.2505 95.9396 37.4425 96.8036 37.4425ZM116.58 41.8345C115.044 41.8345 113.676 41.5105 112.476 40.8625C111.3 40.2145 110.376 39.3145 109.704 38.1625C109.032 37.0105 108.696 35.6785 108.696 34.1665V24.0865H113.448V34.0585C113.448 34.7785 113.568 35.4025 113.808 35.9305C114.048 36.4345 114.408 36.8185 114.888 37.0825C115.368 37.3465 115.932 37.4785 116.58 37.4785C117.564 37.4785 118.332 37.1785 118.884 36.5785C119.436 35.9785 119.712 35.1385 119.712 34.0585V24.0865H124.428V34.1665C124.428 35.7025 124.092 37.0465 123.42 38.1985C122.772 39.3505 121.848 40.2505 120.648 40.8985C119.472 41.5225 118.116 41.8345 116.58 41.8345ZM135.527 41.8345C133.919 41.8345 132.479 41.4385 131.207 40.6465C129.935 39.8545 128.927 38.7745 128.183 37.4065C127.463 36.0385 127.103 34.5025 127.103 32.7985C127.103 31.0705 127.463 29.5225 128.183 28.1545C128.927 26.7865 129.923 25.7065 131.171 24.9145C132.443 24.1225 133.895 23.7265 135.527 23.7265C136.775 23.7265 137.891 23.9785 138.875 24.4825C139.883 24.9865 140.687 25.6945 141.287 26.6065C141.911 27.4945 142.247 28.5025 142.295 29.6305V35.8225C142.247 36.9505 141.923 37.9705 141.323 38.8825C140.723 39.7945 139.919 40.5145 138.911 41.0425C137.903 41.5705 136.775 41.8345 135.527 41.8345ZM136.319 37.4785C137.207 37.4785 137.975 37.2865 138.623 36.9025C139.295 36.4945 139.811 35.9425 140.171 35.2465C140.555 34.5265 140.747 33.6985 140.747 32.7625C140.747 31.8505 140.555 31.0465 140.171 30.3505C139.811 29.6305 139.295 29.0785 138.623 28.6945C137.975 28.2865 137.219 28.0825 136.355 28.0825C135.467 28.0825 134.687 28.2865 134.015 28.6945C133.367 29.1025 132.851 29.6545 132.467 30.3505C132.107 31.0465 131.927 31.8505 131.927 32.7625C131.927 33.6985 132.107 34.5265 132.467 35.2465C132.851 35.9425 133.379 36.4945 134.051 36.9025C134.723 37.2865 135.479 37.4785 136.319 37.4785ZM145.175 41.4745H140.495V36.7945L141.251 32.5465L140.459 28.3705V15.4465H145.175V41.4745ZM157.519 41.8345C155.767 41.8345 154.183 41.4385 152.767 40.6465C151.375 39.8305 150.259 38.7385 149.419 37.3705C148.603 35.9785 148.195 34.4305 148.195 32.7265C148.195 31.0225 148.603 29.4985 149.419 28.1545C150.235 26.7865 151.351 25.7065 152.767 24.9145C154.183 24.0985 155.755 23.6905 157.483 23.6905C159.259 23.6905 160.843 24.0985 162.235 24.9145C163.651 25.7065 164.767 26.7865 165.583 28.1545C166.399 29.4985 166.807 31.0225 166.807 32.7265C166.807 34.4305 166.399 35.9785 165.583 37.3705C164.767 38.7385 163.651 39.8305 162.235 40.6465C160.843 41.4385 159.271 41.8345 157.519 41.8345ZM157.483 37.4425C158.371 37.4425 159.151 37.2505 159.823 36.8665C160.519 36.4585 161.047 35.9065 161.407 35.2105C161.791 34.4905 161.983 33.6745 161.983 32.7625C161.983 31.8505 161.791 31.0465 161.407 30.3505C161.023 29.6545 160.495 29.1145 159.823 28.7305C159.151 28.3225 158.371 28.1185 157.483 28.1185C156.619 28.1185 155.851 28.3225 155.179 28.7305C154.507 29.1145 153.979 29.6545 153.595 30.3505C153.211 31.0465 153.019 31.8505 153.019 32.7625C153.019 33.6745 153.211 34.4905 153.595 35.2105C153.979 35.9065 154.507 36.4585 155.179 36.8665C155.851 37.2505 156.619 37.4425 157.483 37.4425ZM177.259 41.8345C175.723 41.8345 174.355 41.5105 173.155 40.8625C171.979 40.2145 171.055 39.3145 170.383 38.1625C169.711 37.0105 169.375 35.6785 169.375 34.1665V24.0865H174.127V34.0585C174.127 34.7785 174.247 35.4025 174.487 35.9305C174.727 36.4345 175.087 36.8185 175.567 37.0825C176.047 37.3465 176.611 37.4785 177.259 37.4785C178.243 37.4785 179.011 37.1785 179.563 36.5785C180.115 35.9785 180.391 35.1385 180.391 34.0585V24.0865H185.107V34.1665C185.107 35.7025 184.771 37.0465 184.099 38.1985C183.451 39.3505 182.527 40.2505 181.327 40.8985C180.151 41.5225 178.795 41.8345 177.259 41.8345ZM196.135 41.8345C194.551 41.8345 193.123 41.4385 191.851 40.6465C190.579 39.8545 189.583 38.7745 188.863 37.4065C188.143 36.0385 187.783 34.5025 187.783 32.7985C187.783 31.0705 188.143 29.5225 188.863 28.1545C189.583 26.7865 190.579 25.7065 191.851 24.9145C193.123 24.1225 194.551 23.7265 196.135 23.7265C197.383 23.7265 198.499 23.9785 199.483 24.4825C200.467 24.9865 201.247 25.6945 201.823 26.6065C202.423 27.4945 202.747 28.5025 202.795 29.6305V35.8945C202.747 37.0465 202.423 38.0665 201.823 38.9545C201.247 39.8425 200.467 40.5505 199.483 41.0785C198.499 41.5825 197.383 41.8345 196.135 41.8345ZM196.999 37.4785C198.319 37.4785 199.387 37.0465 200.203 36.1825C201.019 35.2945 201.427 34.1545 201.427 32.7625C201.427 31.8505 201.235 31.0465 200.851 30.3505C200.491 29.6305 199.975 29.0785 199.303 28.6945C198.655 28.2865 197.887 28.0825 196.999 28.0825C196.135 28.0825 195.367 28.2865 194.695 28.6945C194.047 29.0785 193.531 29.6305 193.147 30.3505C192.787 31.0465 192.607 31.8505 192.607 32.7625C192.607 33.6985 192.787 34.5265 193.147 35.2465C193.531 35.9425 194.047 36.4945 194.695 36.9025C195.367 37.2865 196.135 37.4785 196.999 37.4785ZM201.175 41.4745V36.7945L201.931 32.5465L201.175 28.3705V24.0865H205.855V41.4745H201.175ZM215.499 41.6185L208.227 24.0865H213.339L218.163 37.4785H216.435L221.439 24.0865H226.587L218.847 41.5825L215.499 41.6185ZM210.675 48.7465L215.967 37.5505L218.847 41.5825L215.679 48.7465H210.675ZM235.475 41.8345C233.891 41.8345 232.463 41.4385 231.191 40.6465C229.919 39.8545 228.923 38.7745 228.203 37.4065C227.483 36.0385 227.123 34.5025 227.123 32.7985C227.123 31.0705 227.483 29.5225 228.203 28.1545C228.923 26.7865 229.919 25.7065 231.191 24.9145C232.463 24.1225 233.891 23.7265 235.475 23.7265C236.723 23.7265 237.839 23.9785 238.823 24.4825C239.807 24.9865 240.587 25.6945 241.163 26.6065C241.763 27.4945 242.087 28.5025 242.135 29.6305V35.8945C242.087 37.0465 241.763 38.0665 241.163 38.9545C240.587 39.8425 239.807 40.5505 238.823 41.0785C237.839 41.5825 236.723 41.8345 235.475 41.8345ZM236.339 37.4785C237.659 37.4785 238.727 37.0465 239.543 36.1825C240.359 35.2945 240.767 34.1545 240.767 32.7625C240.767 31.8505 240.575 31.0465 240.191 30.3505C239.831 29.6305 239.315 29.0785 238.643 28.6945C237.995 28.2865 237.227 28.0825 236.339 28.0825C235.475 28.0825 234.707 28.2865 234.035 28.6945C233.387 29.0785 232.871 29.6305 232.487 30.3505C232.127 31.0465 231.947 31.8505 231.947 32.7625C231.947 33.6985 232.127 34.5265 232.487 35.2465C232.871 35.9425 233.387 36.4945 234.035 36.9025C234.707 37.2865 235.475 37.4785 236.339 37.4785ZM240.515 41.4745V36.7945L241.271 32.5465L240.515 28.3705V24.0865H245.195V41.4745H240.515Z" fill="#B78F62"/>
</svg>
