<svg width="91" height="91" viewBox="0 0 91 91" fill="none" xmlns="http://www.w3.org/2000/svg">
<path d="M28.2485 81.9819C2.40713 59.0119 32.0814 35.6006 19.2246 11.8412M43.4252 87.3143C17.5838 64.3442 52.1802 28.6276 39.3234 4.86816M54.9102 87.3143C29.0688 64.3442 72.279 31.0886 59.4222 7.32924" stroke="#B78F62" stroke-width="2"/>
<path fill-rule="evenodd" clip-rule="evenodd" d="M17.7111 74.0709C25.0194 80.9644 34.9231 85.1184 45.7616 84.9292C49.1936 84.8693 52.5167 84.3774 55.6801 83.5064C57.576 84.4906 59.3786 85.4651 61.0763 86.3837C56.3426 88.2185 51.2108 89.2647 45.8389 89.3585C32.6256 89.5891 20.6626 84.0103 12.3871 74.9754C14.133 74.5859 15.909 74.2784 17.7111 74.0709ZM2.37402 56.9318C1.39371 53.3953 0.84015 49.6784 0.773131 45.8389C0.346143 21.3768 19.8305 1.20011 44.2927 0.773126C68.7548 0.346137 88.9315 19.8305 89.3585 44.2927C89.5848 57.2623 84.2141 69.0272 75.4719 77.2827C74.8036 75.966 73.9981 74.6862 73.0653 73.449C80.558 66.0554 85.1274 55.7257 84.9292 44.37C84.5449 22.354 66.3859 4.8181 44.37 5.20239C22.354 5.58668 4.81811 23.7457 5.2024 45.7616C5.26436 49.3112 5.78837 52.7444 6.71609 56.0047C5.242 56.2793 3.79372 56.5889 2.37402 56.9318Z" fill="#B78F62"/>
</svg>
